<?xml version="1.0" standalone="no"?>
<!DOCTYPE svg PUBLIC "-//W3C//DTD SVG 20010904//EN"
 "http://www.w3.org/TR/2001/REC-SVG-20010904/DTD/svg10.dtd">
<svg version="1.0" xmlns="http://www.w3.org/2000/svg"
 width="1024.000000pt" height="1024.000000pt" viewBox="0 0 1024.000000 1024.000000"
 preserveAspectRatio="xMidYMid meet">

<g transform="translate(0.000000,1024.000000) scale(0.100000,-0.100000)"
fill="#000000" stroke="none">
<path d="M4805 8125 c-342 -46 -679 -145 -959 -282 -194 -96 -291 -154 -456
-276 -179 -132 -241 -188 -379 -337 -248 -269 -436 -560 -580 -897 -128 -300
-201 -630 -222 -993 -25 -465 78 -930 305 -1365 227 -435 504 -755 901 -1038
267 -191 535 -324 845 -421 143 -44 206 -58 395 -90 126 -21 212 -30 465 -48
14 0 0 -4 -30 -8 l-55 -7 63 -1 c55 -2 62 -4 62 -22 0 -13 7 -20 20 -20 13 0
20 7 20 20 0 13 7 20 20 20 13 0 20 -7 20 -20 0 -11 5 -20 10 -20 6 0 10 8 10
19 0 12 9 20 27 24 34 6 43 1 43 -25 0 -18 5 -19 48 -14 82 9 122 18 122 27 0
5 32 9 72 9 52 0 76 4 90 17 17 15 18 15 18 -2 0 -13 4 -15 18 -9 9 5 36 8 60
8 23 0 42 4 42 8 0 4 10 12 21 19 17 9 20 8 14 -1 -6 -10 4 -11 46 -5 30 4 64
8 77 8 12 1 22 6 22 13 0 12 44 24 91 24 19 0 29 5 29 15 0 10 11 16 33 17 17
1 46 3 62 4 17 1 38 2 48 3 10 0 16 5 13 10 -3 5 0 14 8 20 11 9 15 9 19 -1 4
-10 6 -10 6 0 1 6 12 12 26 12 14 0 25 4 25 10 0 5 23 12 50 16 39 5 50 10 50
25 0 14 11 20 50 25 38 5 50 11 50 24 0 11 10 20 30 24 17 3 29 11 28 18 -2 7
8 12 22 13 15 0 26 7 28 17 4 23 19 23 25 0 4 -16 5 -16 6 1 1 10 9 17 22 17
12 0 23 8 26 19 3 13 11 17 24 14 15 -4 22 0 26 16 3 11 12 21 20 21 29 0 108
52 96 63 -3 4 8 14 26 24 17 10 31 21 31 25 0 11 97 58 104 51 3 -4 6 -1 6 5
0 26 141 172 166 172 9 0 18 8 21 18 2 10 14 22 26 27 12 6 31 24 42 42 11 18
25 32 31 33 6 0 17 19 24 43 7 23 15 36 17 30 4 -10 8 -9 19 1 8 8 14 20 14
26 0 6 14 23 30 37 17 13 30 33 30 44 0 12 7 19 20 19 14 0 20 7 20 23 0 13 9
32 20 42 11 10 20 29 20 42 0 12 5 23 11 23 6 0 9 9 6 20 -3 10 1 24 9 31 8 6
11 16 7 22 -3 6 -1 7 6 3 7 -5 15 3 22 22 5 16 20 34 32 39 12 6 29 23 37 39
8 16 21 37 28 46 10 12 13 30 9 54 -5 29 -3 35 8 30 11 -4 15 2 15 24 0 16 4
32 10 35 15 9 12 27 -2 19 -7 -4 -2 5 11 19 14 15 33 27 43 27 10 0 18 5 18
11 0 7 -10 9 -24 7 -19 -4 -22 -1 -18 14 2 10 8 18 13 18 5 0 9 7 9 16 0 8 4
13 9 9 5 -3 13 0 17 6 4 8 3 9 -4 5 -7 -4 -12 -1 -12 9 0 9 4 14 10 10 5 -3
16 8 25 24 20 39 19 55 -1 18 -27 -49 -26 -23 1 34 14 30 24 44 21 32 -5 -29
0 -29 15 -2 8 16 8 23 0 29 -8 5 -7 15 4 36 8 16 15 36 15 45 0 9 11 50 23 90
85 268 120 499 119 799 -2 614 -153 1104 -510 1650 -330 505 -832 896 -1422
1108 -188 67 -372 115 -550 143 -173 27 -609 35 -765 14z m750 -284 c461 -75
886 -263 1235 -545 510 -412 873 -1037 964 -1656 90 -610 -9 -1154 -299 -1657
-129 -223 -304 -452 -451 -593 -239 -227 -575 -443 -884 -565 -180 -72 -449
-141 -640 -165 -126 -15 -522 -12 -679 5 -493 55 -966 260 -1391 602 -328 264
-602 638 -765 1043 -71 176 -126 385 -150 569 -19 142 -19 490 0 653 72 616
316 1121 754 1558 253 253 455 397 746 533 258 120 501 187 835 232 160 21
556 14 725 -14z m2042 -4173 c-3 -8 -6 -5 -6 6 -1 11 2 17 5 13 3 -3 4 -12 1
-19z m-31 -33 c-9 -9 -16 -13 -16 -8 0 12 22 34 28 28 2 -2 -3 -11 -12 -20z
m-256 -319 c0 -2 -8 -10 -17 -17 -16 -13 -17 -12 -4 4 13 16 21 21 21 13z
m-75 -86 c-3 -5 -20 -19 -38 -30 l-32 -22 33 31 c32 30 49 40 37 21z m-690
-500 c-3 -5 -12 -10 -18 -10 -7 0 -6 4 3 10 19 12 23 12 15 0z m-55 -25 c0 -6
-56 -35 -67 -35 -4 1 8 9 27 20 39 22 40 22 40 15z m-650 -245 c-8 -5 -24 -9
-35 -9 -16 1 -16 2 5 9 35 11 48 11 30 0z m-67 -17 c-7 -2 -19 -2 -25 0 -7 3
-2 5 12 5 14 0 19 -2 13 -5z m-50 -10 c-7 -2 -21 -2 -30 0 -10 3 -4 5 12 5 17
0 24 -2 18 -5z m-63 -7 c0 -2 -13 -6 -29 -8 -17 -2 -28 -1 -25 4 5 8 54 12 54
4z m-77 -13 c-7 -2 -19 -2 -25 0 -7 3 -2 5 12 5 14 0 19 -2 13 -5z m-70 -10
c-7 -2 -21 -2 -30 0 -10 3 -4 5 12 5 17 0 24 -2 18 -5z m-80 -10 c-13 -2 -35
-2 -50 0 -16 2 -5 4 22 4 28 0 40 -2 28 -4z m-120 -10 c-13 -2 -33 -2 -45 0
-13 2 -3 4 22 4 25 0 35 -2 23 -4z m-126 -9 c-3 -3 -12 -4 -19 -1 -8 3 -5 6 6
6 11 1 17 -2 13 -5z"/>
<path d="M4895 7598 c-135 -11 -371 -60 -508 -104 -560 -181 -1024 -552 -1326
-1060 -151 -254 -241 -499 -292 -799 -30 -171 -37 -522 -15 -702 55 -449 259
-885 585 -1252 161 -181 459 -405 701 -526 239 -119 494 -201 754 -242 170
-26 499 -24 682 5 407 64 810 232 1119 467 103 78 359 330 426 420 187 247
358 581 424 825 53 198 67 302 72 543 6 241 -4 377 -38 547 -91 445 -319 859
-662 1201 -198 198 -394 336 -642 455 -216 103 -327 141 -552 188 -209 44
-477 57 -728 34z m334 -502 c39 -20 87 -77 101 -119 32 -98 -70 -227 -180
-227 -47 0 -130 40 -162 79 -68 80 -36 210 64 260 51 25 135 28 177 7z m1172
-731 c181 -38 290 -108 470 -300 l64 -68 -29 -21 c-16 -12 -88 -67 -160 -123
-72 -57 -133 -103 -136 -103 -3 0 -18 23 -35 51 -92 155 -265 238 -438 210
-131 -22 -198 -66 -247 -161 -36 -71 -23 -170 34 -245 36 -47 101 -73 325
-130 347 -89 429 -124 539 -229 118 -112 180 -283 169 -465 -13 -238 -152
-443 -379 -561 -113 -59 -206 -80 -354 -80 -195 0 -372 46 -497 130 -70 47
-262 233 -286 277 -10 20 -8 24 18 37 16 9 60 44 99 78 113 102 183 160 186
157 2 -2 13 -22 24 -44 24 -47 128 -156 180 -188 167 -104 405 -95 533 20 107
96 118 244 27 348 -54 61 -139 99 -310 139 -199 47 -305 81 -401 128 -157 78
-265 222 -302 403 -25 122 -1 286 60 412 82 166 300 306 535 342 77 11 218 5
311 -14z m-2083 -11 c393 -71 683 -323 820 -714 41 -116 55 -218 56 -390 1
-244 -50 -421 -179 -621 -122 -190 -354 -363 -575 -429 -173 -52 -173 -52
-607 -57 l-413 -5 0 1119 0 1118 407 -3 c309 -2 428 -6 491 -18z m902 -2600
c60 -24 105 -93 105 -160 0 -72 -43 -141 -108 -173 -46 -22 -52 -23 -105 -11
-106 24 -180 130 -153 220 14 49 64 108 106 126 41 18 107 17 155 -2z"/>
<path d="M3800 5255 l0 -745 173 6 c94 3 208 12 252 20 238 45 395 165 508
386 57 113 80 209 80 343 1 287 -136 527 -375 654 -128 69 -194 81 -431 81
l-207 0 0 -745z"/>
</g>
</svg>
